<svg xmlns="http://www.w3.org/2000/svg" width="57.96" height="57.97" viewBox="0 0 57.96 57.97"><g id="Layer_2" data-name="Layer 2"><g id="Layer_1-2" data-name="Layer 1"><path d="M58,8.05V49.92a8,8,0,0,1-8,8H8a8,8,0,0,1-8-8V8.05A8,8,0,0,1,8,0H49.92A8,8,0,0,1,58,8.05Z" style="fill:#f2f2f3"/><path d="M12.32,19h4.32l8.82,13.46V19h3.6V38.94H25.43L15.92,24.4V38.94h-3.6Z" style="fill:#595a5a"/><path d="M30.76,19h6.66c5.55,0,8.22,2.13,8.22,6.42S42.82,32,37.27,32h-2.7v7H30.76Zm6.51,9.9c3.24,0,4.56-1.05,4.56-3.48s-1.29-3.36-4.5-3.36H34.57v6.84Z" style="fill:#f5803b"/><path d="M58,41.21v8.71a8,8,0,0,1-8,8H8a8,8,0,0,1-8-8V22.82Z" style="fill:#595a5a"/></g></g></svg>